<?xml version="1.0" encoding="UTF-8" standalone="no"?>
<!DOCTYPE svg PUBLIC "-//W3C//DTD SVG 1.1//EN" "http://www.w3.org/Graphics/SVG/1.1/DTD/svg11.dtd">
<svg width="100%" height="100%" viewBox="0 0 1024 1024" version="1.1" xmlns="http://www.w3.org/2000/svg" xmlns:xlink="http://www.w3.org/1999/xlink" xml:space="preserve" xmlns:serif="http://www.serif.com/" style="fill-rule:evenodd;clip-rule:evenodd;stroke-linejoin:round;stroke-miterlimit:2;">
    <g id="logo">
        <path id="shadow" d="M596.869,382.401c14.166,0 24.109,3.542 29.83,10.625c5.721,7.083 7.219,17.707 4.495,31.873c-2.179,14.166 -7.355,24.79 -15.528,31.873c-8.173,7.083 -19.614,10.625 -34.325,10.625l-360.414,-0c-14.166,-0 -24.109,-3.542 -29.83,-10.625c-5.721,-7.083 -7.219,-17.707 -4.495,-31.873c2.179,-14.166 7.355,-24.79 15.528,-31.873c8.173,-7.083 19.614,-10.625 34.325,-10.625l360.414,0Zm-39.229,220.662c14.166,-0 24.246,3.541 30.239,10.624c5.993,7.083 7.628,17.708 4.904,31.874c-2.725,14.166 -8.037,24.79 -15.937,31.873c-7.9,7.083 -19.206,10.624 -33.917,10.624l-360.413,0c-14.166,0 -24.246,-3.541 -30.239,-10.624c-5.993,-7.083 -7.356,-17.707 -4.087,-31.873c2.18,-14.166 7.22,-24.791 15.12,-31.874c7.9,-7.083 19.206,-10.624 33.916,-10.624l360.414,-0Zm-289.312,198.595c-3.269,13.621 -8.581,23.701 -15.936,30.239c-7.356,6.538 -17.844,9.807 -31.465,9.807c-13.621,0 -23.428,-3.269 -29.422,-9.807c-5.993,-6.538 -7.355,-16.618 -4.086,-30.239l143.839,-532.857c3.269,-13.621 8.445,-23.7 15.528,-30.238c7.083,-6.538 17.435,-9.808 31.056,-9.808c13.621,0 23.564,3.27 29.83,9.808c6.266,6.538 7.764,16.617 4.495,30.238l-143.839,532.857Zm179.799,0c-3.269,13.621 -8.582,23.701 -15.937,30.239c-7.355,6.538 -17.844,9.807 -31.465,9.807c-13.621,0 -23.428,-3.269 -29.421,-9.807c-5.993,-6.538 -7.356,-16.618 -4.087,-30.239l143.839,-532.857c3.269,-13.621 8.445,-23.7 15.528,-30.238c7.083,-6.538 17.435,-9.808 31.056,-9.808c13.621,0 23.565,3.27 29.83,9.808c6.266,6.538 7.764,16.617 4.495,30.238l-143.838,532.857Zm337.53,-512.425c2.18,-20.704 8.854,-35.96 20.023,-45.767c11.169,-9.807 26.561,-14.711 46.176,-14.711c19.614,0 33.235,4.904 40.863,14.711c7.628,9.807 9.262,25.063 4.904,45.767l-65.382,300.754c-2.724,14.166 -8.445,24.654 -17.162,31.464c-8.718,6.811 -20.159,10.216 -34.325,10.216c-13.077,0 -22.748,-3.405 -29.013,-10.216c-6.266,-6.81 -8.582,-17.298 -6.947,-31.464l40.863,-300.754Zm-96.437,484.638c1.634,-9.262 4.904,-17.843 9.807,-25.744c4.904,-7.9 10.897,-14.847 17.98,-20.84c7.083,-5.993 14.983,-10.76 23.701,-14.302c8.717,-3.541 17.707,-5.312 26.969,-5.312c18.525,-0 33.236,6.402 44.133,19.206c10.897,12.803 14.71,28.468 11.441,46.992c-1.634,9.807 -4.903,18.797 -9.807,26.97c-4.903,8.173 -11.033,15.256 -18.388,21.249c-7.356,5.993 -15.392,10.761 -24.11,14.302c-8.717,3.542 -17.707,5.312 -26.969,5.312c-18.525,0 -33.1,-6.538 -43.724,-19.614c-10.624,-13.076 -14.302,-29.149 -11.033,-48.219Z" style="fill:#e54b4b;fill-rule:nonzero;"/>
        <path id="highlight" d="M550.409,335.942c14.166,-0 24.11,3.541 29.83,10.624c5.721,7.083 7.22,17.707 4.495,31.873c-2.179,14.166 -7.355,24.791 -15.528,31.874c-8.172,7.083 -19.614,10.624 -34.325,10.624l-360.414,0c-14.166,0 -24.109,-3.541 -29.83,-10.624c-5.721,-7.083 -7.219,-17.708 -4.495,-31.874c2.18,-14.166 7.356,-24.79 15.528,-31.873c8.173,-7.083 19.615,-10.624 34.325,-10.624l360.414,-0Zm-39.229,220.661c14.166,0 24.246,3.542 30.239,10.625c5.994,7.083 7.628,17.707 4.904,31.873c-2.724,14.166 -8.037,24.79 -15.937,31.873c-7.9,7.083 -19.206,10.625 -33.916,10.625l-360.414,-0c-14.166,-0 -24.246,-3.542 -30.239,-10.625c-5.993,-7.083 -7.355,-17.707 -4.086,-31.873c2.179,-14.166 7.219,-24.79 15.119,-31.873c7.9,-7.083 19.206,-10.625 33.917,-10.625l360.413,0Zm-289.311,198.596c-3.269,13.621 -8.582,23.7 -15.937,30.238c-7.355,6.538 -17.844,9.808 -31.465,9.808c-13.621,-0 -23.428,-3.27 -29.421,-9.808c-5.994,-6.538 -7.356,-16.617 -4.087,-30.238l143.839,-532.857c3.269,-13.621 8.445,-23.701 15.528,-30.239c7.083,-6.538 17.435,-9.807 31.056,-9.807c13.621,-0 23.565,3.269 29.83,9.807c6.266,6.538 7.764,16.618 4.495,30.239l-143.838,532.857Zm179.798,-0c-3.269,13.621 -8.581,23.7 -15.937,30.238c-7.355,6.538 -17.843,9.808 -31.464,9.808c-13.622,-0 -23.429,-3.27 -29.422,-9.808c-5.993,-6.538 -7.355,-16.617 -4.086,-30.238l143.838,-532.857c3.269,-13.621 8.445,-23.701 15.528,-30.239c7.083,-6.538 17.435,-9.807 31.056,-9.807c13.622,-0 23.565,3.269 29.831,9.807c6.265,6.538 7.764,16.618 4.495,30.239l-143.839,532.857Zm337.53,-512.426c2.18,-20.704 8.854,-35.959 20.023,-45.767c11.17,-9.807 26.562,-14.71 46.176,-14.71c19.614,-0 33.235,4.903 40.863,14.71c7.628,9.808 9.262,25.063 4.904,45.767l-65.381,300.754c-2.725,14.166 -8.446,24.654 -17.163,31.465c-8.718,6.81 -20.159,10.215 -34.325,10.215c-13.076,0 -22.747,-3.405 -29.013,-10.215c-6.266,-6.811 -8.581,-17.299 -6.947,-31.465l40.863,-300.754Zm-96.437,484.639c1.635,-9.263 4.904,-17.844 9.807,-25.744c4.904,-7.901 10.897,-14.847 17.98,-20.841c7.083,-5.993 14.983,-10.76 23.701,-14.302c8.717,-3.541 17.707,-5.312 26.97,-5.312c18.524,0 33.235,6.402 44.132,19.206c10.897,12.804 14.711,28.468 11.442,46.993c-1.635,9.807 -4.904,18.797 -9.808,26.969c-4.903,8.173 -11.033,15.256 -18.388,21.249c-7.355,5.993 -15.392,10.761 -24.109,14.302c-8.718,3.542 -17.708,5.313 -26.97,5.313c-18.525,-0 -33.099,-6.539 -43.724,-19.615c-10.624,-13.076 -14.302,-29.149 -11.033,-48.218Z" style="fill:#f7ebe8;fill-rule:nonzero;"/>
        <path id="base" d="M573.639,359.171c14.166,0 24.109,3.542 29.83,10.625c5.721,7.083 7.219,17.707 4.495,31.873c-2.179,14.166 -7.355,24.791 -15.528,31.874c-8.172,7.083 -19.614,10.624 -34.325,10.624l-360.414,0c-14.166,0 -24.109,-3.541 -29.83,-10.624c-5.721,-7.083 -7.219,-17.708 -4.495,-31.874c2.179,-14.166 7.355,-24.79 15.528,-31.873c8.173,-7.083 19.614,-10.625 34.325,-10.625l360.414,0Zm-39.229,220.662c14.166,-0 24.246,3.541 30.239,10.624c5.993,7.083 7.628,17.708 4.904,31.874c-2.724,14.166 -8.037,24.79 -15.937,31.873c-7.9,7.083 -19.206,10.625 -33.916,10.625l-360.414,-0c-14.166,-0 -24.246,-3.542 -30.239,-10.625c-5.993,-7.083 -7.355,-17.707 -4.086,-31.873c2.179,-14.166 7.219,-24.791 15.119,-31.874c7.9,-7.083 19.206,-10.624 33.916,-10.624l360.414,-0Zm-289.311,198.595c-3.27,13.621 -8.582,23.701 -15.937,30.239c-7.356,6.538 -17.844,9.807 -31.465,9.807c-13.621,0 -23.428,-3.269 -29.421,-9.807c-5.994,-6.538 -7.356,-16.618 -4.087,-30.239l143.839,-532.856c3.269,-13.621 8.445,-23.701 15.528,-30.239c7.083,-6.538 17.435,-9.807 31.056,-9.807c13.621,-0 23.565,3.269 29.83,9.807c6.266,6.538 7.764,16.618 4.495,30.239l-143.838,532.856Zm179.798,0c-3.269,13.621 -8.581,23.701 -15.937,30.239c-7.355,6.538 -17.843,9.807 -31.465,9.807c-13.621,0 -23.428,-3.269 -29.421,-9.807c-5.993,-6.538 -7.355,-16.618 -4.086,-30.239l143.838,-532.856c3.269,-13.621 8.445,-23.701 15.528,-30.239c7.083,-6.538 17.435,-9.807 31.056,-9.807c13.621,-0 23.565,3.269 29.831,9.807c6.265,6.538 7.764,16.618 4.494,30.239l-143.838,532.856Zm337.53,-512.425c2.18,-20.704 8.854,-35.959 20.023,-45.767c11.17,-9.807 26.561,-14.71 46.176,-14.71c19.614,-0 33.235,4.903 40.863,14.71c7.628,9.808 9.262,25.063 4.904,45.767l-65.382,300.754c-2.724,14.166 -8.445,24.654 -17.162,31.464c-8.718,6.811 -20.159,10.216 -34.325,10.216c-13.077,0 -22.747,-3.405 -29.013,-10.216c-6.266,-6.81 -8.581,-17.298 -6.947,-31.464l40.863,-300.754Zm-96.437,484.638c1.635,-9.262 4.904,-17.843 9.807,-25.743c4.904,-7.901 10.897,-14.847 17.98,-20.841c7.083,-5.993 14.983,-10.76 23.701,-14.302c8.717,-3.541 17.707,-5.312 26.969,-5.312c18.525,-0 33.236,6.402 44.133,19.206c10.897,12.803 14.711,28.468 11.441,46.992c-1.634,9.808 -4.903,18.797 -9.807,26.97c-4.903,8.173 -11.033,15.256 -18.388,21.249c-7.356,5.993 -15.392,10.761 -24.109,14.302c-8.718,3.542 -17.708,5.312 -26.97,5.312c-18.525,0 -33.099,-6.538 -43.724,-19.614c-10.624,-13.076 -14.302,-29.149 -11.033,-48.219Z" style="fill:#6b9fa5;fill-rule:nonzero;"/>
    </g>
</svg>
