<svg clip-rule="evenodd" fill-rule="evenodd" stroke-linejoin="round" stroke-miterlimit="2" viewBox="0 0 690 568" xmlns="http://www.w3.org/2000/svg"><g fill-rule="nonzero"><path d="m428.4 172.421c12.197 0 20.757 3.049 25.683 9.147 4.925 6.098 6.215 15.245 3.87 27.442-1.877 12.196-6.333 21.343-13.369 27.441s-16.887 9.148-29.553 9.148h-310.302c-12.196 0-20.757-3.05-25.682-9.148-4.926-6.098-6.216-15.245-3.87-27.441 1.876-12.197 6.333-21.344 13.369-27.442s16.887-9.147 29.552-9.147zm-33.774 189.98c12.196 0 20.874 3.05 26.034 9.148s6.568 15.245 4.222 27.441c-2.345 12.197-6.919 21.344-13.721 27.442-6.801 6.098-16.535 9.147-29.2 9.147h-310.302c-12.197 0-20.875-3.049-26.035-9.147s-6.332-15.245-3.518-27.442c1.876-12.196 6.216-21.343 13.017-27.441 6.802-6.098 16.536-9.148 29.201-9.148zm-249.086 170.983c-2.814 11.727-7.388 20.406-13.721 26.035-6.332 5.629-15.362 8.443-27.09 8.443-11.727 0-20.17-2.814-25.33-8.443s-6.333-14.308-3.519-26.035l123.84-458.768c2.814-11.727 7.271-20.406 13.369-26.035s15.011-8.443 26.738-8.443 20.288 2.814 25.682 8.443c5.395 5.629 6.685 14.308 3.87 26.035zm154.799 0c-2.814 11.727-7.388 20.406-13.721 26.035-6.332 5.629-15.362 8.443-27.089 8.443-11.728 0-20.171-2.814-25.331-8.443s-6.333-14.308-3.518-26.035l123.839-458.768c2.814-11.727 7.271-20.406 13.369-26.035s15.011-8.443 26.738-8.443 20.288 2.814 25.683 8.443c5.394 5.629 6.684 14.308 3.869 26.035zm290.6-441.177c1.877-17.826 7.623-30.96 17.239-39.404 9.617-8.443 22.868-12.665 39.756-12.665 16.887 0 28.614 4.222 35.181 12.665 6.567 8.444 7.975 21.578 4.222 39.404l-56.291 258.936c-2.345 12.197-7.27 21.227-14.776 27.09-7.505 5.864-17.356 8.796-29.552 8.796-11.259 0-19.585-2.932-24.979-8.796-5.395-5.863-7.389-14.893-5.981-27.09zm-83.028 417.254c1.407-7.975 4.222-15.363 8.443-22.165 4.222-6.802 9.382-12.782 15.48-17.942s12.9-9.265 20.406-12.314c7.505-3.049 15.245-4.574 23.219-4.574 15.949 0 28.615 5.512 37.997 16.536 9.381 11.023 12.665 24.51 9.85 40.459-1.407 8.443-4.221 16.183-8.443 23.22-4.222 7.036-9.499 13.134-15.832 18.294s-13.252 9.264-20.757 12.314c-7.505 3.049-15.245 4.573-23.22 4.573-15.949 0-28.497-5.629-37.644-16.887s-12.314-25.096-9.499-41.514z" fill="#e54b4b"/><path d="m388.4 132.421c12.197 0 20.757 3.049 25.683 9.147 4.925 6.098 6.215 15.245 3.87 27.442-1.877 12.196-6.333 21.343-13.369 27.441s-16.887 9.148-29.553 9.148h-310.302c-12.196 0-20.757-3.05-25.682-9.148-4.926-6.098-6.216-15.245-3.87-27.441 1.876-12.197 6.333-21.344 13.369-27.442s16.887-9.147 29.552-9.147zm-33.774 189.98c12.196 0 20.874 3.05 26.034 9.148s6.568 15.245 4.222 27.441c-2.345 12.197-6.919 21.344-13.721 27.442-6.801 6.098-16.535 9.147-29.2 9.147h-310.302c-12.197 0-20.875-3.049-26.035-9.147s-6.332-15.245-3.518-27.442c1.876-12.196 6.216-21.343 13.017-27.441 6.802-6.098 16.536-9.148 29.201-9.148zm-249.086 170.983c-2.814 11.727-7.388 20.406-13.721 26.035-6.332 5.629-15.362 8.443-27.09 8.443-11.727 0-20.17-2.814-25.33-8.443s-6.333-14.308-3.519-26.035l123.84-458.768c2.814-11.727 7.271-20.406 13.369-26.035s15.011-8.443 26.738-8.443 20.288 2.814 25.682 8.443c5.395 5.629 6.685 14.308 3.87 26.035zm154.799 0c-2.814 11.727-7.388 20.406-13.721 26.035-6.332 5.629-15.362 8.443-27.089 8.443-11.728 0-20.171-2.814-25.331-8.443s-6.333-14.308-3.518-26.035l123.839-458.768c2.814-11.727 7.271-20.406 13.369-26.035s15.011-8.443 26.738-8.443 20.288 2.814 25.683 8.443c5.394 5.629 6.684 14.308 3.869 26.035zm290.6-441.177c1.877-17.826 7.623-30.96 17.239-39.404 9.617-8.443 22.868-12.665 39.756-12.665 16.887 0 28.614 4.222 35.181 12.665 6.567 8.444 7.975 21.578 4.222 39.404l-56.291 258.936c-2.345 12.197-7.27 21.227-14.776 27.09-7.505 5.864-17.356 8.796-29.552 8.796-11.259 0-19.585-2.932-24.979-8.796-5.395-5.863-7.389-14.893-5.981-27.09zm-83.028 417.254c1.407-7.975 4.222-15.363 8.443-22.165 4.222-6.802 9.382-12.782 15.48-17.942s12.9-9.265 20.406-12.314c7.505-3.049 15.245-4.574 23.219-4.574 15.949 0 28.615 5.512 37.997 16.536 9.381 11.023 12.665 24.51 9.85 40.459-1.407 8.443-4.221 16.183-8.443 23.22-4.222 7.036-9.499 13.134-15.832 18.294s-13.252 9.264-20.757 12.314c-7.505 3.049-15.245 4.573-23.22 4.573-15.949 0-28.497-5.629-37.644-16.887s-12.314-25.096-9.499-41.514z" fill="#f7ebe8"/><path d="m408.4 152.421c12.197 0 20.757 3.049 25.683 9.147 4.925 6.098 6.215 15.245 3.87 27.442-1.877 12.196-6.333 21.343-13.369 27.441s-16.887 9.148-29.553 9.148h-310.302c-12.196 0-20.757-3.05-25.682-9.148-4.926-6.098-6.216-15.245-3.87-27.441 1.876-12.197 6.333-21.344 13.369-27.442s16.887-9.147 29.552-9.147zm-33.774 189.98c12.196 0 20.874 3.05 26.034 9.148s6.568 15.245 4.222 27.441c-2.345 12.197-6.919 21.344-13.721 27.442-6.801 6.098-16.535 9.147-29.2 9.147h-310.302c-12.197 0-20.875-3.049-26.035-9.147s-6.332-15.245-3.518-27.442c1.876-12.196 6.216-21.343 13.017-27.441 6.802-6.098 16.536-9.148 29.201-9.148zm-249.086 170.983c-2.814 11.727-7.388 20.406-13.721 26.035-6.332 5.629-15.362 8.443-27.09 8.443-11.727 0-20.17-2.814-25.33-8.443s-6.333-14.308-3.519-26.035l123.84-458.768c2.814-11.727 7.271-20.406 13.369-26.035s15.011-8.443 26.738-8.443 20.288 2.814 25.682 8.443c5.395 5.629 6.685 14.308 3.87 26.035zm154.799 0c-2.814 11.727-7.388 20.406-13.721 26.035-6.332 5.629-15.362 8.443-27.089 8.443-11.728 0-20.171-2.814-25.331-8.443s-6.333-14.308-3.518-26.035l123.839-458.768c2.814-11.727 7.271-20.406 13.369-26.035s15.011-8.443 26.738-8.443 20.288 2.814 25.683 8.443c5.394 5.629 6.684 14.308 3.869 26.035zm290.6-441.177c1.877-17.826 7.623-30.96 17.239-39.404 9.617-8.443 22.868-12.665 39.756-12.665 16.887 0 28.614 4.222 35.181 12.665 6.567 8.444 7.975 21.578 4.222 39.404l-56.291 258.936c-2.345 12.197-7.27 21.227-14.776 27.09-7.505 5.864-17.356 8.796-29.552 8.796-11.259 0-19.585-2.932-24.979-8.796-5.395-5.863-7.389-14.893-5.981-27.09zm-83.028 417.254c1.407-7.975 4.222-15.363 8.443-22.165 4.222-6.802 9.382-12.782 15.48-17.942s12.9-9.265 20.406-12.314c7.505-3.049 15.245-4.574 23.219-4.574 15.949 0 28.615 5.512 37.997 16.536 9.381 11.023 12.665 24.51 9.85 40.459-1.407 8.443-4.221 16.183-8.443 23.22-4.222 7.036-9.499 13.134-15.832 18.294s-13.252 9.264-20.757 12.314c-7.505 3.049-15.245 4.573-23.22 4.573-15.949 0-28.497-5.629-37.644-16.887s-12.314-25.096-9.499-41.514z" fill="#6b9fa5"/></g></svg>