<?xml version="1.0" encoding="UTF-8"?>
<svg id="Layer_2" data-name="Layer 2" xmlns="http://www.w3.org/2000/svg" viewBox="0 0 688.76 568.72">
  <defs>
    <style>
      .cls-1 {
        fill: #f7ebe8;
      }

      .cls-2 {
        fill: #6b9fa5;
      }

      .cls-3 {
        fill: #e54b4b;
      }
    </style>
  </defs>
  <g id="logo">
    <g id="logo-2" data-name="logo">
      <path id="shadow" class="cls-3" d="M394.01,363.26c12.2,0,20.88,3.06,26.03,9.15,5.17,6.1,6.57,15.25,4.22,27.44-2.34,12.2-6.92,21.35-13.72,27.44-6.79,6.1-16.54,9.15-29.2,9.15H71.04c-12.19,0-20.87-3.05-26.03-9.15-5.16-6.09-6.33-15.24-3.52-27.44,1.88-12.19,6.22-21.34,13.02-27.44,6.81-6.09,16.54-9.15,29.2-9.15h310.3ZM427.78,173.28c12.2,0,20.76,3.06,25.68,9.15,4.92,6.1,6.22,15.25,3.87,27.44-1.87,12.2-6.33,21.35-13.37,27.44-7.04,6.1-16.89,9.15-29.55,9.15H104.11c-12.19,0-20.76-3.05-25.68-9.15-4.93-6.09-6.21-15.24-3.87-27.44,1.88-12.19,6.33-21.34,13.37-27.44,7.04-6.09,16.89-9.15,29.55-9.15h310.3ZM144.92,534.25c-2.81,11.73-7.39,20.41-13.72,26.03-6.33,5.63-15.36,8.44-27.09,8.44s-20.16-2.81-25.33-8.44c-5.16-5.63-6.33-14.3-3.52-26.03L199.1,75.48c2.81-11.72,7.28-20.41,13.37-26.03,6.1-5.63,15.02-8.44,26.74-8.44s20.3,2.81,25.68,8.44c5.4,5.63,6.68,14.31,3.87,26.03l-123.84,458.77ZM299.72,534.25c-2.81,11.73-7.39,20.41-13.72,26.03-6.33,5.63-15.36,8.44-27.09,8.44s-20.16-2.81-25.33-8.44c-5.16-5.63-6.33-14.3-3.52-26.03l123.84-458.77c2.81-11.72,7.28-20.41,13.37-26.03,6.1-5.63,15.02-8.44,26.74-8.44s20.29,2.81,25.68,8.44c5.4,5.63,6.68,14.31,3.87,26.03l-123.84,458.77ZM507.29,510.32c1.41-7.97,4.22-15.36,8.44-22.16,4.22-6.79,9.38-12.78,15.48-17.94,6.09-5.16,12.9-9.26,20.41-12.31,7.5-3.04,15.24-4.57,23.22-4.57,15.94,0,28.61,5.52,38,16.54,9.38,11.03,12.67,24.52,9.85,40.46-1.41,8.44-4.22,16.18-8.44,23.22s-9.5,13.14-15.83,18.29c-6.33,5.17-13.26,9.27-20.76,12.31-7.51,3.04-15.25,4.57-23.22,4.57-15.95,0-28.5-5.63-37.64-16.89-9.15-11.26-12.31-25.09-9.5-41.51ZM590.32,93.07c1.87-17.82,7.62-30.96,17.24-39.4,9.61-8.44,22.87-12.67,39.75-12.67s28.61,4.22,35.18,12.67c6.56,8.44,7.97,21.58,4.22,39.4l-56.29,258.94c-2.35,12.2-7.28,21.23-14.78,27.09-7.51,5.87-17.36,8.8-29.55,8.8-11.26,0-19.59-2.92-24.98-8.8-5.4-5.86-7.39-14.89-5.98-27.09l35.18-258.94Z"/>
      <path id="highlight" class="cls-1" d="M354.01,322.26c12.2,0,20.88,3.06,26.03,9.15,5.17,6.1,6.57,15.25,4.22,27.44-2.34,12.2-6.92,21.35-13.72,27.44-6.79,6.1-16.54,9.15-29.2,9.15H31.04c-12.19,0-20.87-3.05-26.03-9.15-5.16-6.09-6.33-15.24-3.52-27.44,1.88-12.19,6.22-21.34,13.02-27.44,6.81-6.09,16.54-9.15,29.2-9.15h310.3ZM387.78,132.28c12.2,0,20.76,3.06,25.68,9.15,4.92,6.1,6.22,15.25,3.87,27.44-1.87,12.2-6.33,21.35-13.37,27.44-7.04,6.1-16.89,9.15-29.55,9.15H64.11c-12.19,0-20.76-3.05-25.68-9.15-4.93-6.09-6.21-15.24-3.87-27.44,1.88-12.19,6.33-21.34,13.37-27.44,7.04-6.09,16.89-9.15,29.55-9.15h310.3ZM104.92,493.25c-2.81,11.73-7.39,20.41-13.72,26.03-6.33,5.63-15.36,8.44-27.09,8.44s-20.16-2.81-25.33-8.44c-5.16-5.63-6.33-14.3-3.52-26.03L159.1,34.48c2.81-11.72,7.28-20.41,13.37-26.03,6.1-5.63,15.02-8.44,26.74-8.44s20.3,2.81,25.68,8.44c5.4,5.63,6.68,14.31,3.87,26.03l-123.84,458.77ZM259.72,493.25c-2.81,11.73-7.39,20.41-13.72,26.03-6.33,5.63-15.36,8.44-27.09,8.44s-20.16-2.81-25.33-8.44c-5.16-5.63-6.33-14.3-3.52-26.03L313.9,34.48c2.81-11.72,7.28-20.41,13.37-26.03,6.1-5.63,15.02-8.44,26.74-8.44s20.29,2.81,25.68,8.44c5.4,5.63,6.68,14.31,3.87,26.03l-123.84,458.77ZM467.29,469.32c1.41-7.97,4.22-15.36,8.44-22.16,4.22-6.79,9.38-12.78,15.48-17.94,6.09-5.16,12.9-9.26,20.41-12.31,7.5-3.04,15.24-4.57,23.22-4.57,15.94,0,28.61,5.52,38,16.54,9.38,11.03,12.67,24.52,9.85,40.46-1.41,8.44-4.22,16.18-8.44,23.22s-9.5,13.14-15.83,18.29c-6.33,5.17-13.26,9.27-20.76,12.31-7.51,3.04-15.25,4.57-23.22,4.57-15.95,0-28.5-5.63-37.64-16.89-9.15-11.26-12.31-25.09-9.5-41.51ZM550.32,52.07c1.87-17.82,7.62-30.96,17.24-39.4,9.61-8.44,22.87-12.67,39.75-12.67s28.61,4.22,35.18,12.67c6.56,8.44,7.97,21.58,4.22,39.4l-56.29,258.94c-2.35,12.2-7.28,21.23-14.78,27.09-7.51,5.87-17.36,8.8-29.55,8.8-11.26,0-19.59-2.92-24.98-8.8-5.4-5.86-7.39-14.89-5.98-27.09l35.18-258.94Z"/>
      <path id="base" class="cls-2" d="M374.01,343.26c12.2,0,20.88,3.06,26.03,9.15,5.17,6.1,6.57,15.25,4.22,27.44-2.34,12.2-6.92,21.35-13.72,27.44-6.79,6.1-16.54,9.15-29.2,9.15H51.04c-12.19,0-20.87-3.05-26.03-9.15-5.16-6.09-6.33-15.24-3.52-27.44,1.88-12.19,6.22-21.34,13.02-27.44,6.81-6.09,16.54-9.15,29.2-9.15h310.3ZM407.78,153.28c12.2,0,20.76,3.06,25.68,9.15,4.92,6.1,6.22,15.25,3.87,27.44-1.87,12.2-6.33,21.35-13.37,27.44-7.04,6.1-16.89,9.15-29.55,9.15H84.11c-12.19,0-20.76-3.05-25.68-9.15-4.93-6.09-6.21-15.24-3.87-27.44,1.88-12.19,6.33-21.34,13.37-27.44,7.04-6.09,16.89-9.15,29.55-9.15h310.3ZM124.92,514.25c-2.81,11.73-7.39,20.41-13.72,26.03-6.33,5.63-15.36,8.44-27.09,8.44s-20.16-2.81-25.33-8.44c-5.16-5.63-6.33-14.3-3.52-26.03L179.1,55.48c2.81-11.72,7.28-20.41,13.37-26.03,6.1-5.63,15.02-8.44,26.74-8.44s20.3,2.81,25.68,8.44c5.4,5.63,6.68,14.31,3.87,26.03l-123.84,458.77ZM279.72,514.25c-2.81,11.73-7.39,20.41-13.72,26.03-6.33,5.63-15.36,8.44-27.09,8.44s-20.16-2.81-25.33-8.44c-5.16-5.63-6.33-14.3-3.52-26.03L333.9,55.48c2.81-11.72,7.28-20.41,13.37-26.03,6.1-5.63,15.02-8.44,26.74-8.44s20.29,2.81,25.68,8.44c5.4,5.63,6.68,14.31,3.87,26.03l-123.84,458.77ZM487.29,490.32c1.41-7.97,4.22-15.36,8.44-22.16,4.22-6.79,9.38-12.78,15.48-17.94,6.09-5.16,12.9-9.26,20.41-12.31,7.5-3.04,15.24-4.57,23.22-4.57,15.94,0,28.61,5.52,38,16.54,9.38,11.03,12.67,24.52,9.85,40.46-1.41,8.44-4.22,16.18-8.44,23.22s-9.5,13.14-15.83,18.29c-6.33,5.17-13.26,9.27-20.76,12.31-7.51,3.04-15.25,4.57-23.22,4.57-15.95,0-28.5-5.63-37.64-16.89-9.15-11.26-12.31-25.09-9.5-41.51ZM570.32,73.07c1.87-17.82,7.62-30.96,17.24-39.4,9.61-8.44,22.87-12.67,39.75-12.67s28.61,4.22,35.18,12.67c6.56,8.44,7.97,21.58,4.22,39.4l-56.29,258.94c-2.35,12.2-7.28,21.23-14.78,27.09-7.51,5.87-17.36,8.8-29.55,8.8-11.26,0-19.59-2.92-24.98-8.8-5.4-5.86-7.39-14.89-5.98-27.09l35.18-258.94Z"/>
    </g>
  </g>
</svg>