<?xml version="1.0" encoding="UTF-8"?>
<svg xmlns="http://www.w3.org/2000/svg" viewBox="0 0 1024 1024">
  <defs>
    <style>
      .cls-1 {
        fill: #1e1e24;
      }

      .cls-2 {
        fill: #f7ebe8;
      }

      .cls-3 {
        fill: #6b9fa5;
      }

      .cls-4 {
        fill: #e54b4b;
      }
    </style>
  </defs>
  <g id="Background">
    <circle class="cls-1" cx="512" cy="512" r="512"/>
  </g>
  <g id="text">
    <path id="shadow" class="cls-4" d="M549.63,590.4c12.2,0,20.88,3.06,26.03,9.15,5.17,6.1,6.57,15.25,4.22,27.44-2.34,12.2-6.92,21.35-13.72,27.44-6.79,6.1-16.54,9.15-29.2,9.15H226.66c-12.19,0-20.87-3.05-26.03-9.15-5.16-6.09-6.33-15.24-3.52-27.44,1.88-12.19,6.22-21.34,13.02-27.44,6.81-6.09,16.54-9.15,29.2-9.15h310.3ZM583.4,400.42c12.2,0,20.76,3.06,25.68,9.15,4.92,6.1,6.22,15.25,3.87,27.44-1.87,12.2-6.33,21.35-13.37,27.44-7.04,6.1-16.89,9.15-29.55,9.15h-310.3c-12.19,0-20.76-3.05-25.68-9.15-4.93-6.09-6.21-15.24-3.87-27.44,1.88-12.19,6.33-21.34,13.37-27.44,7.04-6.09,16.89-9.15,29.55-9.15h310.3ZM300.54,761.38c-2.81,11.73-7.39,20.41-13.72,26.03-6.33,5.63-15.36,8.44-27.09,8.44s-20.16-2.81-25.33-8.44c-5.16-5.63-6.33-14.3-3.52-26.03l123.84-458.77c2.81-11.72,7.28-20.41,13.37-26.03,6.1-5.63,15.02-8.44,26.74-8.44s20.3,2.81,25.68,8.44c5.4,5.63,6.68,14.31,3.87,26.03l-123.84,458.77ZM455.34,761.38c-2.81,11.73-7.39,20.41-13.72,26.03-6.33,5.63-15.36,8.44-27.09,8.44s-20.16-2.81-25.33-8.44c-5.16-5.63-6.33-14.3-3.52-26.03l123.84-458.77c2.81-11.72,7.28-20.41,13.37-26.03,6.1-5.63,15.02-8.44,26.74-8.44s20.29,2.81,25.68,8.44c5.4,5.63,6.68,14.31,3.87,26.03l-123.84,458.77ZM662.91,737.46c1.41-7.97,4.22-15.36,8.44-22.16,4.22-6.79,9.38-12.78,15.48-17.94,6.09-5.16,12.9-9.26,20.41-12.31,7.5-3.04,15.24-4.57,23.22-4.57,15.94,0,28.61,5.52,38,16.54,9.38,11.03,12.67,24.52,9.85,40.46-1.41,8.44-4.22,16.18-8.44,23.22s-9.5,13.14-15.83,18.29c-6.33,5.17-13.26,9.27-20.76,12.31-7.51,3.04-15.25,4.57-23.22,4.57-15.95,0-28.5-5.63-37.64-16.89-9.15-11.26-12.31-25.09-9.5-41.51ZM745.94,320.21c1.87-17.82,7.62-30.96,17.24-39.4,9.61-8.44,22.87-12.67,39.75-12.67s28.61,4.22,35.18,12.67c6.56,8.44,7.97,21.58,4.22,39.4l-56.29,258.94c-2.35,12.2-7.28,21.23-14.78,27.09-7.51,5.87-17.36,8.8-29.55,8.8-11.26,0-19.59-2.92-24.98-8.8-5.4-5.86-7.39-14.89-5.98-27.09l35.18-258.94Z"/>
    <path id="highlight" class="cls-2" d="M509.63,549.4c12.2,0,20.88,3.06,26.03,9.15,5.17,6.1,6.57,15.25,4.22,27.44-2.34,12.2-6.92,21.35-13.72,27.44-6.79,6.1-16.54,9.15-29.2,9.15H186.66c-12.19,0-20.87-3.05-26.03-9.15-5.16-6.09-6.33-15.24-3.52-27.44,1.88-12.19,6.22-21.34,13.02-27.44,6.81-6.09,16.54-9.15,29.2-9.15h310.3ZM543.4,359.42c12.2,0,20.76,3.06,25.68,9.15,4.92,6.1,6.22,15.25,3.87,27.44-1.87,12.2-6.33,21.35-13.37,27.44-7.04,6.1-16.89,9.15-29.55,9.15H219.73c-12.19,0-20.76-3.05-25.68-9.15-4.93-6.09-6.21-15.24-3.87-27.44,1.88-12.19,6.33-21.34,13.37-27.44,7.04-6.09,16.89-9.15,29.55-9.15h310.3ZM260.54,720.38c-2.81,11.73-7.39,20.41-13.72,26.03-6.33,5.63-15.36,8.44-27.09,8.44s-20.16-2.81-25.33-8.44c-5.16-5.63-6.33-14.3-3.52-26.03l123.84-458.77c2.81-11.72,7.28-20.41,13.37-26.03,6.1-5.63,15.02-8.44,26.74-8.44s20.3,2.81,25.68,8.44c5.4,5.63,6.68,14.31,3.87,26.03l-123.84,458.77ZM415.34,720.38c-2.81,11.73-7.39,20.41-13.72,26.03-6.33,5.63-15.36,8.44-27.09,8.44s-20.16-2.81-25.33-8.44c-5.16-5.63-6.33-14.3-3.52-26.03l123.84-458.77c2.81-11.72,7.28-20.41,13.37-26.03,6.1-5.63,15.02-8.44,26.74-8.44s20.29,2.81,25.68,8.44c5.4,5.63,6.68,14.31,3.87,26.03l-123.84,458.77ZM622.91,696.46c1.41-7.97,4.22-15.36,8.44-22.16,4.22-6.79,9.38-12.78,15.48-17.94,6.09-5.16,12.9-9.26,20.41-12.31,7.5-3.04,15.24-4.57,23.22-4.57,15.94,0,28.61,5.52,38,16.54,9.38,11.03,12.67,24.52,9.85,40.46-1.41,8.44-4.22,16.18-8.44,23.22s-9.5,13.14-15.83,18.29c-6.33,5.17-13.26,9.27-20.76,12.31-7.51,3.04-15.25,4.57-23.22,4.57-15.95,0-28.5-5.63-37.64-16.89-9.15-11.26-12.31-25.09-9.5-41.51ZM705.94,279.21c1.87-17.82,7.62-30.96,17.24-39.4,9.61-8.44,22.87-12.67,39.75-12.67s28.61,4.22,35.18,12.67c6.56,8.44,7.97,21.58,4.22,39.4l-56.29,258.94c-2.35,12.2-7.28,21.23-14.78,27.09-7.51,5.87-17.36,8.8-29.55,8.8-11.26,0-19.59-2.92-24.98-8.8-5.4-5.86-7.39-14.89-5.98-27.09l35.18-258.94Z"/>
    <path id="base" class="cls-3" d="M529.63,570.4c12.2,0,20.88,3.06,26.03,9.15,5.17,6.1,6.57,15.25,4.22,27.44-2.34,12.2-6.92,21.35-13.72,27.44-6.79,6.1-16.54,9.15-29.2,9.15H206.66c-12.19,0-20.87-3.05-26.03-9.15-5.16-6.09-6.33-15.24-3.52-27.44,1.88-12.19,6.22-21.34,13.02-27.44,6.81-6.09,16.54-9.15,29.2-9.15h310.3ZM563.4,380.42c12.2,0,20.76,3.06,25.68,9.15,4.92,6.1,6.22,15.25,3.87,27.44-1.87,12.2-6.33,21.35-13.37,27.44-7.04,6.1-16.89,9.15-29.55,9.15H239.73c-12.19,0-20.76-3.05-25.68-9.15-4.93-6.09-6.21-15.24-3.87-27.44,1.88-12.19,6.33-21.34,13.37-27.44,7.04-6.09,16.89-9.15,29.55-9.15h310.3ZM280.54,741.38c-2.81,11.73-7.39,20.41-13.72,26.03-6.33,5.63-15.36,8.44-27.09,8.44s-20.16-2.81-25.33-8.44c-5.16-5.63-6.33-14.3-3.52-26.03l123.84-458.77c2.81-11.72,7.28-20.41,13.37-26.03,6.1-5.63,15.02-8.44,26.74-8.44s20.3,2.81,25.68,8.44c5.4,5.63,6.68,14.31,3.87,26.03l-123.84,458.77ZM435.34,741.38c-2.81,11.73-7.39,20.41-13.72,26.03-6.33,5.63-15.36,8.44-27.09,8.44s-20.16-2.81-25.33-8.44c-5.16-5.63-6.33-14.3-3.52-26.03l123.84-458.77c2.81-11.72,7.28-20.41,13.37-26.03,6.1-5.63,15.02-8.44,26.74-8.44s20.29,2.81,25.68,8.44c5.4,5.63,6.68,14.31,3.87,26.03l-123.84,458.77ZM642.91,717.46c1.41-7.97,4.22-15.36,8.44-22.16,4.22-6.79,9.38-12.78,15.48-17.94,6.09-5.16,12.9-9.26,20.41-12.31,7.5-3.04,15.24-4.57,23.22-4.57,15.94,0,28.61,5.52,38,16.54,9.38,11.03,12.67,24.52,9.85,40.46-1.41,8.44-4.22,16.18-8.44,23.22s-9.5,13.14-15.83,18.29c-6.33,5.17-13.26,9.27-20.76,12.31-7.51,3.04-15.25,4.57-23.22,4.57-15.95,0-28.5-5.63-37.64-16.89-9.15-11.26-12.31-25.09-9.5-41.51ZM725.94,300.21c1.87-17.82,7.62-30.96,17.24-39.4,9.61-8.44,22.87-12.67,39.75-12.67s28.61,4.22,35.18,12.67c6.56,8.44,7.97,21.58,4.22,39.4l-56.29,258.94c-2.35,12.2-7.28,21.23-14.78,27.09-7.51,5.87-17.36,8.8-29.55,8.8-11.26,0-19.59-2.92-24.98-8.8-5.4-5.86-7.39-14.89-5.98-27.09l35.18-258.94Z"/>
  </g>
</svg>